<svg width="355" height="98" viewBox="0 0 355 98" fill="none" xmlns="http://www.w3.org/2000/svg">
<path d="M239 0.749995C244.333 0.666662 248.708 1.625 252.125 3.625C255.625 5.625 258.458 8 260.625 10.75C262.792 13.5 264.458 16.2917 265.625 19.125C266.792 21.875 267.708 24.0417 268.375 25.625C268.542 26.0417 268.875 26.5833 269.375 27.25C269.792 27.8333 270.375 28.5417 271.125 29.375C271.958 30.125 273 31 274.25 32C271.667 32.0833 269.375 32.1667 267.375 32.25C265.375 32.25 263.667 32.2917 262.25 32.375C260.667 32.4583 259.25 32.5417 258 32.625C256.75 32.7083 255.208 32.8333 253.375 33C251.708 33.1667 249.667 33.3333 247.25 33.5C244.833 33.6667 241.875 33.9167 238.375 34.25C240.458 31.75 242.083 29.5417 243.25 27.625C244.5 25.625 245.417 23.875 246 22.375C246.667 20.7917 247.042 19.4167 247.125 18.25C247.292 17.0833 247.25 16.0833 247 15.25C246.5 13.3333 245.208 11.9583 243.125 11.125C237.125 9.45833 231.875 10.7917 227.375 15.125C222.958 19.375 219.792 26.375 217.875 36.125C216.958 40.9583 216.083 46 215.25 51.25C214.5 56.4167 214.208 61.1667 214.375 65.5C214.542 69.75 215.375 73.2083 216.875 75.875C218.375 78.5417 220.958 79.7917 224.625 79.625C228.208 79.4583 231.25 78.875 233.75 77.875C236.25 76.7917 238.25 75.5417 239.75 74.125C241.25 72.625 242.292 71.0417 242.875 69.375C243.542 67.625 243.792 66 243.625 64.5C243.292 63.3333 242.417 62.0833 241 60.75C239.75 59.5833 237.875 58.2917 235.375 56.875C232.875 55.375 229.292 53.8333 224.625 52.25C229.042 52 232.667 51.8333 235.5 51.75C238.417 51.5833 240.708 51.4167 242.375 51.25C244.375 51.0833 245.917 50.9583 247 50.875C248 50.7917 249.458 50.7083 251.375 50.625C253.042 50.5417 255.167 50.5 257.75 50.5C260.417 50.5 263.75 50.4583 267.75 50.375C266.25 51.875 265.083 53.25 264.25 54.5C263.833 55.1667 263.458 55.75 263.125 56.25C262.792 57.0833 262.667 58.7917 262.75 61.375C262.75 63.5417 262.917 66.75 263.25 71C263.583 75.1667 264.208 80.875 265.125 88.125L248.5 90.375L249.25 73.5C247.333 78.0833 244.917 81.5 242 83.75C239.167 86 236.458 87.5833 233.875 88.5C230.792 89.5833 227.583 90.0833 224.25 90C219.917 89.5833 215.583 88.5833 211.25 87C206.917 85.4167 203.083 83 199.75 79.75C196.417 76.4167 193.833 72.125 192 66.875C190.25 61.625 189.708 55.125 190.375 47.375C191.125 39.625 192.958 32.875 195.875 27.125C198.875 21.2917 202.583 16.4583 207 12.625C211.417 8.79166 216.375 5.91666 221.875 4C227.458 2 233.167 0.916662 239 0.749995Z" fill="black"/>
<path d="M146.875 12.25C149.375 12.5 151.458 12.7083 153.125 12.875C154.875 13.0417 156.292 13.1667 157.375 13.25C158.625 13.3333 159.625 13.375 160.375 13.375C161.125 13.4583 162.125 13.4583 163.375 13.375C164.458 13.2917 165.875 13.2083 167.625 13.125C169.375 12.9583 171.583 12.7083 174.25 12.375C173.667 13.2083 173.208 13.9583 172.875 14.625C172.542 15.2083 172.25 15.75 172 16.25L171.25 17.75C171.083 18.25 170.917 18.75 170.75 19.25C170.583 19.6667 170.417 20.1667 170.25 20.75C170.167 21.3333 170.083 21.9583 170 22.625H189.25L187.5 32.75L169.875 31.75C169.458 36 169.167 39.2917 169 41.625C168.833 43.9583 168.667 45.6667 168.5 46.75L168.25 49C168 52.1667 167.75 55.625 167.5 59.375C167.25 63.0417 167.167 66.4583 167.25 69.625C167.333 72.7917 167.625 75.4583 168.125 77.625C168.625 79.7083 169.5 80.75 170.75 80.75C172 80.75 173.167 80.4167 174.25 79.75C175.333 79.0833 176.25 78.2917 177 77.375C177.833 76.4583 178.458 75.5417 178.875 74.625C179.292 73.625 179.5 72.875 179.5 72.375C179.5 71.875 179.375 71.2917 179.125 70.625C178.708 69.375 177.958 67.7917 176.875 65.875C179.292 66.4583 181.417 67.0417 183.25 67.625C184.167 67.9583 185 68.2917 185.75 68.625C186.583 68.9583 187.542 69.3333 188.625 69.75C189.542 70.1667 190.708 70.6667 192.125 71.25C193.542 71.8333 195.208 72.5417 197.125 73.375C195.292 73.7083 193.958 74.25 193.125 75C192.625 75.3333 192.25 75.7083 192 76.125C191.417 77.0417 190.75 78.2917 190 79.875C189.25 81.375 188.125 82.875 186.625 84.375C185.125 85.875 183.083 87.2083 180.5 88.375C178 89.5417 174.625 90.2083 170.375 90.375C165.958 90.5417 162.583 89.7917 160.25 88.125C158 86.4583 156.333 84.5417 155.25 82.375C154.25 80.125 153.667 77.9167 153.5 75.75C153.333 73.5833 153.208 72.125 153.125 71.375C153.042 70.625 153.042 68.75 153.125 65.75C153.208 62.75 153.333 59.4583 153.5 55.875C153.667 52.2083 153.833 48.7083 154 45.375C154.167 41.9583 154.25 39.4583 154.25 37.875C154.25 37.0417 154.292 36.1667 154.375 35.25C154.375 34.5 154.375 33.7083 154.375 32.875C154.458 31.9583 154.5 31.0833 154.5 30.25L136.375 30.125L135.625 23L153.875 23.5C153.708 22.5833 153.5 21.75 153.25 21C153.083 20.1667 152.917 19.5 152.75 19C152.5 18.4167 152.25 17.9167 152 17.5C151.667 17.0833 151.292 16.625 150.875 16.125C150.458 15.7083 149.917 15.1667 149.25 14.5C148.583 13.8333 147.792 13.0833 146.875 12.25Z" fill="black"/>
<path d="M110.125 70.875C112.458 70.875 114.625 70.625 116.625 70.125C118.292 69.7083 119.875 69.0417 121.375 68.125C122.958 67.125 124 65.6667 124.5 63.75C126.167 64.0833 127.583 64.375 128.75 64.625C129.917 64.7917 130.917 64.9583 131.75 65.125C132.667 65.375 133.458 65.5417 134.125 65.625C134.792 65.7917 135.583 65.9583 136.5 66.125C137.333 66.2917 138.333 66.5 139.5 66.75C140.75 66.9167 142.208 67.1667 143.875 67.5C142.625 67.3333 141.333 67.4583 140 67.875C138.75 68.2917 137.542 68.75 136.375 69.25C135.042 69.8333 133.792 70.5417 132.625 71.375C131.875 71.875 131 72.625 130 73.625C129.083 74.625 127.75 75.5833 126 76.5C124.25 77.4167 121.917 78.2083 119 78.875C116.167 79.4583 112.5 79.6667 108 79.5C102.583 79.3333 98.0416 78.375 94.375 76.625C90.7083 74.7917 87.75 72.5833 85.5 70C83.25 67.3333 81.625 64.4583 80.625 61.375C79.625 58.2917 79.0833 55.4167 79 52.75C78.9166 50.0833 79.7083 47.2917 81.375 44.375C83.0416 41.4583 85.375 38.7917 88.375 36.375C91.4583 33.9583 95.1666 32 99.5 30.5C103.833 28.9167 108.583 28.125 113.75 28.125C116.75 28.125 119.5 28.5 122 29.25C124.583 29.9167 126.917 30.8333 129 32C131.167 33.1667 133.042 34.5 134.625 36C136.208 37.4167 137.542 38.875 138.625 40.375C139.708 41.9583 140.625 43.625 141.375 45.375C142.042 46.875 142.583 48.5833 143 50.5C143.417 52.4167 143.542 54.375 143.375 56.375C137.042 56.5417 131.917 56.6667 128 56.75C124.167 56.8333 121.167 56.875 119 56.875H113.375H109.125C107.625 56.875 105.667 56.9167 103.25 57C100.833 57.0833 97.875 57.2083 94.375 57.375C94.7916 60.7083 95.8333 63.2917 97.5 65.125C99.25 66.875 101.083 68.2083 103 69.125C105.167 70.125 107.542 70.7083 110.125 70.875ZM98.875 48.375C101.542 48.5417 103.75 48.6667 105.5 48.75C107.333 48.8333 108.833 48.9167 110 49C111.25 49.0833 112.25 49.125 113 49.125H116.125C118.208 49.125 122.083 49 127.75 48.75C127.5 45.0833 126.708 42.2917 125.375 40.375C124.125 38.4583 122.792 37.0417 121.375 36.125C119.708 35.125 117.875 34.5417 115.875 34.375C110.458 34.4583 106.417 35.5833 103.75 37.75C101.167 39.9167 99.5416 43.4583 98.875 48.375Z" fill="black"/>
<path d="M0.5 1.49995C3.66667 2.24995 6.5 2.83328 9 3.24995C11.5833 3.58328 13.75 3.83328 15.5 3.99995C17.5833 4.24995 19.4167 4.33328 21 4.24995C23 4.16661 25.5 3.87495 28.5 3.37495C31.5 2.87495 34.6667 2.37495 38 1.87495C41.3333 1.37495 44.625 0.958281 47.875 0.624948C51.125 0.291614 53.9583 0.249948 56.375 0.499948C58.7917 0.749948 61.3333 1.33328 64 2.24995C66.6667 3.08328 69.1667 4.24995 71.5 5.74995C73.8333 7.16661 75.8333 8.91661 77.5 10.9999C79.25 13.0833 80.3333 15.4999 80.75 18.2499C81.1667 20.9166 80.9167 23.7916 80 26.8749C79.0833 29.8749 77.625 32.8333 75.625 35.7499C73.625 38.5833 71.125 41.2083 68.125 43.6249C65.125 46.0416 61.7917 47.9999 58.125 49.4999C55.2083 50.5833 52.0417 51.4166 48.625 51.9999C45.7083 52.4999 42.2917 52.8333 38.375 52.9999C34.5417 53.0833 30.4583 52.6666 26.125 51.7499C25.5417 54.1666 25.2083 56.4166 25.125 58.4999C25.125 60.4999 25.2083 62.2916 25.375 63.8749C25.625 65.7083 25.9583 67.3749 26.375 68.8749C26.875 70.3749 27.5 72.1249 28.25 74.1249C28.9167 75.7916 29.6667 77.8333 30.5 80.2499C31.4167 82.5833 32.5 85.2083 33.75 88.1249C32.25 88.1249 30.7917 88.1666 29.375 88.2499C27.9583 88.2499 26.6667 88.2916 25.5 88.3749C24.1667 88.4583 22.9167 88.5416 21.75 88.6249C20.4167 88.7083 18.9167 88.8749 17.25 89.1249C15.8333 89.2916 14.0417 89.5416 11.875 89.8749C9.79167 90.2083 7.41667 90.6249 4.75 91.1249C6.5 88.6249 7.875 86.3333 8.875 84.2499C9.95833 82.0833 10.75 80.2083 11.25 78.6249C11.8333 76.7916 12.2083 75.1249 12.375 73.6249C12.4583 72.3749 12.4583 70.1666 12.375 66.9999C12.375 63.8333 12.3333 60.1666 12.25 55.9999C12.1667 51.8333 12.0417 47.4583 11.875 42.8749C11.7083 38.2916 11.5 33.9999 11.25 29.9999C11 25.9166 10.7083 22.4166 10.375 19.4999C10.125 16.5833 9.875 14.6666 9.625 13.7499C9.29167 12.6666 8.70833 11.4999 7.875 10.2499C7.20833 9.16661 6.25 7.91661 5 6.49995C3.83333 4.99995 2.33333 3.33328 0.5 1.49995ZM26.375 26.1249C26.2917 26.9583 26.25 27.8333 26.25 28.7499C26.25 30.4999 26.375 32.7499 26.625 35.4999C27.2083 36.9166 27.9167 38.0833 28.75 38.9999C29.6667 39.9166 30.625 40.6249 31.625 41.1249C32.7083 41.6249 33.7917 41.9583 34.875 42.1249C35.9583 42.2916 37.0417 42.3749 38.125 42.3749C40.625 42.2916 43.25 41.7083 46 40.6249C49.6667 39.0416 52.25 36.7916 53.75 33.8749C55.25 30.9583 56.0417 27.9583 56.125 24.8749C56.2083 21.7916 55.6667 18.9583 54.5 16.3749C53.4167 13.7916 52.0833 12.0416 50.5 11.1249C49.1667 10.5416 47.4583 10.2916 45.375 10.3749C43.5417 10.4583 41.25 10.9166 38.5 11.7499C35.75 12.5833 32.375 14.0833 28.375 16.2499C27.9583 17.7499 27.625 19.0833 27.375 20.2499C27.125 21.4166 26.9167 22.4583 26.75 23.3749C26.5833 24.3749 26.4583 25.2916 26.375 26.1249Z" fill="black"/>
<g clip-path="url(#clip0_157_50)">
<path d="M314.5 66.6667L328 51.0001M328 51.0001L314.5 35.3334M328 51.0001L301 51.0001M314.5 11.8334C333.14 11.8334 348.25 29.3689 348.25 51.0001C348.25 72.6312 333.14 90.1667 314.5 90.1667C295.86 90.1667 280.75 72.6312 280.75 51.0001C280.75 29.3689 295.86 11.8334 314.5 11.8334Z" stroke="#1E1E1E" stroke-width="12" stroke-linecap="round" stroke-linejoin="round"/>
</g>
<defs>
<clipPath id="clip0_157_50">
<rect width="94" height="81" fill="white" transform="matrix(0 -1 1 0 274 98)"/>
</clipPath>
</defs>
</svg>
