<svg width="355" height="98" viewBox="0 0 355 98" fill="none" xmlns="http://www.w3.org/2000/svg">
<path d="M238.5 0.410762C243.833 0.327428 248.208 1.28576 251.625 3.28576C255.125 5.28576 257.958 7.66076 260.125 10.4108C262.292 13.1608 263.958 15.9524 265.125 18.7858C266.292 21.5358 267.208 23.7024 267.875 25.2858C268.042 25.7024 268.375 26.2441 268.875 26.9108C269.292 27.4941 269.875 28.2024 270.625 29.0358C271.458 29.7858 272.5 30.6608 273.75 31.6608C271.167 31.7441 268.875 31.8274 266.875 31.9108C264.875 31.9108 263.167 31.9524 261.75 32.0358C260.167 32.1191 258.75 32.2024 257.5 32.2858C256.25 32.3691 254.708 32.4941 252.875 32.6608C251.208 32.8274 249.167 32.9941 246.75 33.1608C244.333 33.3274 241.375 33.5774 237.875 33.9108C239.958 31.4108 241.583 29.2024 242.75 27.2858C244 25.2858 244.917 23.5358 245.5 22.0358C246.167 20.4524 246.542 19.0774 246.625 17.9108C246.792 16.7441 246.75 15.7441 246.5 14.9108C246 12.9941 244.708 11.6191 242.625 10.7858C236.625 9.1191 231.375 10.4524 226.875 14.7858C222.458 19.0358 219.292 26.0358 217.375 35.7858C216.458 40.6191 215.583 45.6608 214.75 50.9108C214 56.0774 213.708 60.8274 213.875 65.1608C214.042 69.4108 214.875 72.8691 216.375 75.5358C217.875 78.2024 220.458 79.4524 224.125 79.2858C227.708 79.1191 230.75 78.5358 233.25 77.5358C235.75 76.4524 237.75 75.2024 239.25 73.7858C240.75 72.2858 241.792 70.7024 242.375 69.0358C243.042 67.2858 243.292 65.6608 243.125 64.1608C242.792 62.9941 241.917 61.7441 240.5 60.4108C239.25 59.2441 237.375 57.9524 234.875 56.5358C232.375 55.0358 228.792 53.4941 224.125 51.9108C228.542 51.6608 232.167 51.4941 235 51.4108C237.917 51.2441 240.208 51.0774 241.875 50.9108C243.875 50.7441 245.417 50.6191 246.5 50.5358C247.5 50.4524 248.958 50.3691 250.875 50.2858C252.542 50.2024 254.667 50.1608 257.25 50.1608C259.917 50.1608 263.25 50.1191 267.25 50.0358C265.75 51.5358 264.583 52.9108 263.75 54.1608C263.333 54.8274 262.958 55.4108 262.625 55.9108C262.292 56.7441 262.167 58.4524 262.25 61.0358C262.25 63.2024 262.417 66.4108 262.75 70.6608C263.083 74.8274 263.708 80.5358 264.625 87.7858L248 90.0358L248.75 73.1608C246.833 77.7441 244.417 81.1608 241.5 83.4108C238.667 85.6608 235.958 87.2441 233.375 88.1608C230.292 89.2441 227.083 89.7441 223.75 89.6608C219.417 89.2441 215.083 88.2441 210.75 86.6608C206.417 85.0774 202.583 82.6608 199.25 79.4108C195.917 76.0774 193.333 71.7858 191.5 66.5358C189.75 61.2858 189.208 54.7858 189.875 47.0358C190.625 39.2858 192.458 32.5358 195.375 26.7858C198.375 20.9524 202.083 16.1191 206.5 12.2858C210.917 8.45243 215.875 5.57743 221.375 3.66076C226.958 1.66076 232.667 0.577428 238.5 0.410762Z" fill="#FFBC00"/>
<path d="M146.375 11.9106C148.875 12.1606 150.958 12.369 152.625 12.5356C154.375 12.7023 155.792 12.8273 156.875 12.9106C158.125 12.994 159.125 13.0356 159.875 13.0356C160.625 13.119 161.625 13.119 162.875 13.0356C163.958 12.9523 165.375 12.869 167.125 12.7856C168.875 12.619 171.083 12.369 173.75 12.0356C173.167 12.869 172.708 13.619 172.375 14.2856C172.042 14.869 171.75 15.4106 171.5 15.9106L170.75 17.4106C170.583 17.9106 170.417 18.4106 170.25 18.9106C170.083 19.3273 169.917 19.8273 169.75 20.4106C169.667 20.994 169.583 21.619 169.5 22.2856H188.75L187 32.4106L169.375 31.4106C168.958 35.6606 168.667 38.9523 168.5 41.2856C168.333 43.619 168.167 45.3273 168 46.4106L167.75 48.6606C167.5 51.8273 167.25 55.2856 167 59.0356C166.75 62.7023 166.667 66.119 166.75 69.2856C166.833 72.4523 167.125 75.119 167.625 77.2856C168.125 79.369 169 80.4106 170.25 80.4106C171.5 80.4106 172.667 80.0773 173.75 79.4106C174.833 78.744 175.75 77.9523 176.5 77.0356C177.333 76.119 177.958 75.2023 178.375 74.2856C178.792 73.2856 179 72.5356 179 72.0356C179 71.5356 178.875 70.9523 178.625 70.2856C178.208 69.0356 177.458 67.4523 176.375 65.5356C178.792 66.119 180.917 66.7023 182.75 67.2856C183.667 67.619 184.5 67.9523 185.25 68.2856C186.083 68.619 187.042 68.994 188.125 69.4106C189.042 69.8273 190.208 70.3273 191.625 70.9106C193.042 71.494 194.708 72.2023 196.625 73.0356C194.792 73.369 193.458 73.9106 192.625 74.6606C192.125 74.994 191.75 75.369 191.5 75.7856C190.917 76.7023 190.25 77.9523 189.5 79.5356C188.75 81.0356 187.625 82.5356 186.125 84.0356C184.625 85.5356 182.583 86.869 180 88.0356C177.5 89.2023 174.125 89.869 169.875 90.0356C165.458 90.2023 162.083 89.4523 159.75 87.7856C157.5 86.119 155.833 84.2023 154.75 82.0356C153.75 79.7856 153.167 77.5773 153 75.4106C152.833 73.244 152.708 71.7856 152.625 71.0356C152.542 70.2856 152.542 68.4106 152.625 65.4106C152.708 62.4106 152.833 59.119 153 55.5356C153.167 51.869 153.333 48.369 153.5 45.0356C153.667 41.619 153.75 39.119 153.75 37.5356C153.75 36.7023 153.792 35.8273 153.875 34.9106C153.875 34.1606 153.875 33.369 153.875 32.5356C153.958 31.619 154 30.744 154 29.9106L135.875 29.7856L135.125 22.6606L153.375 23.1606C153.208 22.244 153 21.4106 152.75 20.6606C152.583 19.8273 152.417 19.1606 152.25 18.6606C152 18.0773 151.75 17.5773 151.5 17.1606C151.167 16.744 150.792 16.2856 150.375 15.7856C149.958 15.369 149.417 14.8273 148.75 14.1606C148.083 13.494 147.292 12.744 146.375 11.9106Z" fill="#FFBC00"/>
<path d="M109.625 70.5356C111.958 70.5356 114.125 70.2856 116.125 69.7856C117.792 69.369 119.375 68.7023 120.875 67.7856C122.458 66.7856 123.5 65.3273 124 63.4106C125.667 63.744 127.083 64.0356 128.25 64.2856C129.417 64.4523 130.417 64.619 131.25 64.7856C132.167 65.0356 132.958 65.2023 133.625 65.2856C134.292 65.4523 135.083 65.619 136 65.7856C136.833 65.9523 137.833 66.1606 139 66.4106C140.25 66.5773 141.708 66.8273 143.375 67.1606C142.125 66.994 140.833 67.119 139.5 67.5356C138.25 67.9523 137.042 68.4106 135.875 68.9106C134.542 69.494 133.292 70.2023 132.125 71.0356C131.375 71.5356 130.5 72.2856 129.5 73.2856C128.583 74.2856 127.25 75.244 125.5 76.1606C123.75 77.0773 121.417 77.869 118.5 78.5356C115.667 79.119 112 79.3273 107.5 79.1606C102.083 78.994 97.5416 78.0356 93.875 76.2856C90.2083 74.4523 87.25 72.244 85 69.6606C82.75 66.994 81.125 64.119 80.125 61.0356C79.125 57.9523 78.5833 55.0773 78.5 52.4106C78.4166 49.744 79.2083 46.9523 80.875 44.0356C82.5416 41.119 84.875 38.4523 87.875 36.0356C90.9583 33.619 94.6666 31.6606 99 30.1606C103.333 28.5773 108.083 27.7856 113.25 27.7856C116.25 27.7856 119 28.1606 121.5 28.9106C124.083 29.5773 126.417 30.494 128.5 31.6606C130.667 32.8273 132.542 34.1606 134.125 35.6606C135.708 37.0773 137.042 38.5356 138.125 40.0356C139.208 41.619 140.125 43.2856 140.875 45.0356C141.542 46.5356 142.083 48.244 142.5 50.1606C142.917 52.0773 143.042 54.0356 142.875 56.0356C136.542 56.2023 131.417 56.3273 127.5 56.4106C123.667 56.494 120.667 56.5356 118.5 56.5356H112.875H108.625C107.125 56.5356 105.167 56.5773 102.75 56.6606C100.333 56.744 97.375 56.869 93.875 57.0356C94.2916 60.369 95.3333 62.9523 97 64.7856C98.75 66.5356 100.583 67.869 102.5 68.7856C104.667 69.7856 107.042 70.369 109.625 70.5356ZM98.375 48.0356C101.042 48.2023 103.25 48.3273 105 48.4106C106.833 48.494 108.333 48.5773 109.5 48.6606C110.75 48.744 111.75 48.7856 112.5 48.7856H115.625C117.708 48.7856 121.583 48.6606 127.25 48.4106C127 44.744 126.208 41.9523 124.875 40.0356C123.625 38.119 122.292 36.7023 120.875 35.7856C119.208 34.7856 117.375 34.2023 115.375 34.0356C109.958 34.119 105.917 35.244 103.25 37.4106C100.667 39.5773 99.0416 43.119 98.375 48.0356Z" fill="#FFBC00"/>
<path d="M0 1.16071C3.16667 1.91071 6 2.49405 8.5 2.91071C11.0833 3.24405 13.25 3.49405 15 3.66071C17.0833 3.91071 18.9167 3.99405 20.5 3.91071C22.5 3.82738 25 3.53571 28 3.03571C31 2.53571 34.1667 2.03571 37.5 1.53571C40.8333 1.03571 44.125 0.619048 47.375 0.285714C50.625 -0.047619 53.4583 -0.0892857 55.875 0.160714C58.2917 0.410714 60.8333 0.994048 63.5 1.91071C66.1667 2.74405 68.6667 3.91071 71 5.41071C73.3333 6.82738 75.3333 8.57738 77 10.6607C78.75 12.744 79.8333 15.1607 80.25 17.9107C80.6667 20.5774 80.4167 23.4524 79.5 26.5357C78.5833 29.5357 77.125 32.494 75.125 35.4107C73.125 38.244 70.625 40.869 67.625 43.2857C64.625 45.7024 61.2917 47.6607 57.625 49.1607C54.7083 50.244 51.5417 51.0774 48.125 51.6607C45.2083 52.1607 41.7917 52.494 37.875 52.6607C34.0417 52.744 29.9583 52.3274 25.625 51.4107C25.0417 53.8274 24.7083 56.0774 24.625 58.1607C24.625 60.1607 24.7083 61.9524 24.875 63.5357C25.125 65.369 25.4583 67.0357 25.875 68.5357C26.375 70.0357 27 71.7857 27.75 73.7857C28.4167 75.4524 29.1667 77.494 30 79.9107C30.9167 82.244 32 84.869 33.25 87.7857C31.75 87.7857 30.2917 87.8274 28.875 87.9107C27.4583 87.9107 26.1667 87.9524 25 88.0357C23.6667 88.119 22.4167 88.2024 21.25 88.2857C19.9167 88.369 18.4167 88.5357 16.75 88.7857C15.3333 88.9524 13.5417 89.2024 11.375 89.5357C9.29167 89.869 6.91667 90.2857 4.25 90.7857C6 88.2857 7.375 85.994 8.375 83.9107C9.45833 81.744 10.25 79.869 10.75 78.2857C11.3333 76.4524 11.7083 74.7857 11.875 73.2857C11.9583 72.0357 11.9583 69.8274 11.875 66.6607C11.875 63.494 11.8333 59.8274 11.75 55.6607C11.6667 51.494 11.5417 47.119 11.375 42.5357C11.2083 37.9524 11 33.6607 10.75 29.6607C10.5 25.5774 10.2083 22.0774 9.875 19.1607C9.625 16.244 9.375 14.3274 9.125 13.4107C8.79167 12.3274 8.20833 11.1607 7.375 9.91071C6.70833 8.82738 5.75 7.57738 4.5 6.16071C3.33333 4.66071 1.83333 2.99405 0 1.16071ZM25.875 25.7857C25.7917 26.619 25.75 27.494 25.75 28.4107C25.75 30.1607 25.875 32.4107 26.125 35.1607C26.7083 36.5774 27.4167 37.744 28.25 38.6607C29.1667 39.5774 30.125 40.2857 31.125 40.7857C32.2083 41.2857 33.2917 41.619 34.375 41.7857C35.4583 41.9524 36.5417 42.0357 37.625 42.0357C40.125 41.9524 42.75 41.369 45.5 40.2857C49.1667 38.7024 51.75 36.4524 53.25 33.5357C54.75 30.619 55.5417 27.619 55.625 24.5357C55.7083 21.4524 55.1667 18.619 54 16.0357C52.9167 13.4524 51.5833 11.7024 50 10.7857C48.6667 10.2024 46.9583 9.95238 44.875 10.0357C43.0417 10.119 40.75 10.5774 38 11.4107C35.25 12.244 31.875 13.744 27.875 15.9107C27.4583 17.4107 27.125 18.744 26.875 19.9107C26.625 21.0774 26.4167 22.119 26.25 23.0357C26.0833 24.0357 25.9583 24.9524 25.875 25.7857Z" fill="#FFBC00"/>
<g clip-path="url(#clip0_158_47)">
<path d="M314 66.3274L327.5 50.6607M327.5 50.6607L314 34.9941M327.5 50.6607L300.5 50.6607M314 11.4941C332.64 11.4941 347.75 29.0296 347.75 50.6607C347.75 72.2919 332.64 89.8274 314 89.8274C295.36 89.8274 280.25 72.2919 280.25 50.6607C280.25 29.0296 295.36 11.4941 314 11.4941Z" stroke="#FFBC00" stroke-width="12" stroke-linecap="round" stroke-linejoin="round"/>
</g>
<defs>
<clipPath id="clip0_158_47">
<rect width="94" height="81" fill="white" transform="matrix(0 -1 1 0 273.5 97.6606)"/>
</clipPath>
</defs>
</svg>
